# xmcd CD database file
#
# Track frame offsets:
#	150
#	12223
#	24305
#	40093
#	53078
#	68528
#	80193
#	93278
#	103895
#	117840
#	134853
#	148798
#
# Disc length: 2174 seconds
#
# Revision: 0
# Processed by: cddbd v1.5PL3 Copyright (c) Steve Scherf et al.
# Submitted via: CDex 1.51
#
DISCID=a2087c0c
DTITLE=Umberto Nova - Sudseezauber
DYEAR=1990
DGENRE=Jazz
TTITLE0=Pedro
TTITLE1=Bananaboat Song
TTITLE2=Summerbreeze
TTITLE3=Little Monkey
TTITLE4=Guantanamera
TTITLE5=Rio Negro
TTITLE6=Jamaica Farewell
TTITLE7=La Bamba
TTITLE8=Jamaican Reggae
TTITLE9=Aloha-Oe
TTITLE10=Moreno
TTITLE11=Cabano
EXTD=YEAR: 1990
EXTT0=
EXTT1=
EXTT2=
EXTT3=
EXTT4=
EXTT5=
EXTT6=
EXTT7=
EXTT8=
EXTT9=
EXTT10=
EXTT11=
PLAYORDER=
